<?xml version="1.0" encoding="UTF-8"?>
<mxfile host="app.diagrams.net" modified="2024-03-21T15:00:00.000Z" agent="Mozilla/5.0" version="21.1.9" etag="your-etag" type="device">
  <diagram name="Use Case Diagram" id="use-case-diagram">
    <mxGraphModel dx="1222" dy="798" grid="1" gridSize="10" guides="1" tooltips="1" connect="1" arrows="1" fold="1" page="1" pageScale="1" pageWidth="827" pageHeight="1169" math="0" shadow="0">
      <root>
        <mxCell id="0" />
        <mxCell id="1" parent="0" />
        
        <!-- Actors -->
        <mxCell id="actor1" value="Admin User" style="shape=umlActor;verticalLabelPosition=bottom;verticalAlign=top;html=1;" vertex="1" parent="1">
          <mxGeometry x="40" y="40" width="30" height="60" as="geometry" />
        </mxCell>
        <mxCell id="actor2" value="Regular User" style="shape=umlActor;verticalLabelPosition=bottom;verticalAlign=top;html=1;" vertex="1" parent="1">
          <mxGeometry x="40" y="160" width="30" height="60" as="geometry" />
        </mxCell>
        <mxCell id="actor3" value="System" style="shape=umlActor;verticalLabelPosition=bottom;verticalAlign=top;html=1;" vertex="1" parent="1">
          <mxGeometry x="40" y="280" width="30" height="60" as="geometry" />
        </mxCell>

        <!-- Use Cases -->
        <mxCell id="uc1" value="User Management&#xa;Login&#xa;Register&#xa;Manage Permissions" style="ellipse;whiteSpace=wrap;html=1;" vertex="1" parent="1">
          <mxGeometry x="200" y="20" width="160" height="80" as="geometry" />
        </mxCell>
        <mxCell id="uc2" value="Product Management&#xa;Add/Edit/Delete&#xa;View List&#xa;Track Stock" style="ellipse;whiteSpace=wrap;html=1;" vertex="1" parent="1">
          <mxGeometry x="200" y="140" width="160" height="80" as="geometry" />
        </mxCell>
        <mxCell id="uc3" value="Category Management&#xa;Add/Edit/Delete&#xa;View Categories" style="ellipse;whiteSpace=wrap;html=1;" vertex="1" parent="1">
          <mxGeometry x="200" y="260" width="160" height="60" as="geometry" />
        </mxCell>
        <mxCell id="uc4" value="Supplier Management&#xa;Add/Edit/Delete&#xa;View Suppliers" style="ellipse;whiteSpace=wrap;html=1;" vertex="1" parent="1">
          <mxGeometry x="400" y="20" width="160" height="60" as="geometry" />
        </mxCell>
        <mxCell id="uc5" value="Sales Management&#xa;Create Sale&#xa;View History&#xa;Process Returns" style="ellipse;whiteSpace=wrap;html=1;" vertex="1" parent="1">
          <mxGeometry x="400" y="140" width="160" height="80" as="geometry" />
        </mxCell>
        <mxCell id="uc6" value="Inventory Management&#xa;Track Stock&#xa;Set Alerts&#xa;View History" style="ellipse;whiteSpace=wrap;html=1;" vertex="1" parent="1">
          <mxGeometry x="400" y="260" width="160" height="80" as="geometry" />
        </mxCell>

        <!-- Relationships -->
        <mxCell id="rel1" value="" style="endArrow=none;html=1;rounded=0;exitX=1;exitY=0.5;entryX=0;entryY=0.5;" edge="1" parent="1" source="actor1" target="uc1" />
        <mxCell id="rel2" value="" style="endArrow=none;html=1;rounded=0;exitX=1;exitY=0.5;entryX=0;entryY=0.5;" edge="1" parent="1" source="actor1" target="uc2" />
        <mxCell id="rel3" value="" style="endArrow=none;html=1;rounded=0;exitX=1;exitY=0.5;entryX=0;entryY=0.5;" edge="1" parent="1" source="actor1" target="uc3" />
        <mxCell id="rel4" value="" style="endArrow=none;html=1;rounded=0;exitX=1;exitY=0.5;entryX=0;entryY=0.5;" edge="1" parent="1" source="actor1" target="uc4" />
        <mxCell id="rel5" value="" style="endArrow=none;html=1;rounded=0;exitX=1;exitY=0.5;entryX=0;entryY=0.5;" edge="1" parent="1" source="actor1" target="uc5" />
        <mxCell id="rel6" value="" style="endArrow=none;html=1;rounded=0;exitX=1;exitY=0.5;entryX=0;entryY=0.5;" edge="1" parent="1" source="actor1" target="uc6" />
        
        <mxCell id="rel7" value="" style="endArrow=none;html=1;rounded=0;exitX=1;exitY=0.5;entryX=0;entryY=0.5;" edge="1" parent="1" source="actor2" target="uc2" />
        <mxCell id="rel8" value="" style="endArrow=none;html=1;rounded=0;exitX=1;exitY=0.5;entryX=0;entryY=0.5;" edge="1" parent="1" source="actor2" target="uc5" />
        
        <mxCell id="rel9" value="" style="endArrow=none;html=1;rounded=0;exitX=1;exitY=0.5;entryX=0;entryY=0.5;" edge="1" parent="1" source="actor3" target="uc6" />
      </root>
    </mxGraphModel>
  </diagram>
</mxfile> 